<?xml version="1.0" encoding="UTF-8" standalone="no"?>
<!-- Created with Inkscape (http://www.inkscape.org/) -->

<svg
   xmlns:dc="http://purl.org/dc/elements/1.1/"
   xmlns:cc="http://creativecommons.org/ns#"
   xmlns:rdf="http://www.w3.org/1999/02/22-rdf-syntax-ns#"
   xmlns:svg="http://www.w3.org/2000/svg"
   xmlns="http://www.w3.org/2000/svg"
   version="1.1"
   width="595.276pt"
   height="841.89001pt"
   viewBox="0 0 595.276 841.89"
   id="svg2"
   style="fill-rule:evenodd">
  <metadata
     id="metadata32">
    <rdf:RDF>
      <cc:Work
         rdf:about="">
        <dc:format>image/svg+xml</dc:format>
        <dc:type
           rdf:resource="http://purl.org/dc/dcmitype/StillImage" />
        <dc:title></dc:title>
      </cc:Work>
    </rdf:RDF>
  </metadata>
  <defs
     id="defs30" />
  <g
     transform="translate(-121.28924,-105.23626)"
     id="g10"
     style="fill:#000000">
    <path
       d="m 137.492,542.569 50.892,5.004 -18.632,44.078 -16.716,-1.277 -6.175,21.719 -5.643,-0.532 -3.726,-68.992 z m 26.724,35.667 7.346,-18.845 -22.997,0 3.3,17.993 12.351,0.852 z m 46.553,34.097 -10.94,0.958 1.438,-18.765 -9.183,-27.948 5.909,0.958 8.225,15.092 8.943,-13.575 4.312,0.958 -11.818,23.956 3.114,18.366 z m 23.317,-35.375 -10.461,0.799 1.278,-8.784 24.834,0.16 0,6.308 -8.944,0.958 0.879,36.493 -10.541,0 2.955,-35.934 z m 50.865,-7.266 1.757,43.12 -3.673,-0.08 -4.552,-16.529 -12.936,1.277 -1.357,14.134 -4.791,0.24 -2.476,-43.36 6.388,0.479 3.194,20.203 9.742,0.399 3.035,-20.202 5.669,0.319 z m 10.62,-1.357 0,0 32.899,0 -4.551,42.64 -24.275,1.757 -4.073,-44.397 z m 11.419,36.332 0,0 11.339,-1.677 3.034,-26.111 -18.126,1.437 3.753,26.351 z m 56.934,8.624 -17.088,-25.952 -1.677,26.431 -4.232,0 -4.312,-46.234 11.578,0 14.693,29.864 1.996,-27.868 3.993,-0.559 2.795,43.839 -7.746,0.479 z m 59.383,-1.411 -25.978,-39.5 -2.768,40.139 -6.069,0 -6.707,-69.844 17.46,0 22.146,44.93 3.194,-42.161 6.175,-0.746 4.046,66.437 -11.499,0.745 z m 21.694,-43.545 0,0 32.898,0 -4.551,42.64 -24.275,1.757 -4.072,-44.397 z m 11.418,36.332 0,0 11.339,-1.677 3.035,-26.111 -18.127,1.437 3.753,26.351 z m 63.083,-34.256 -9.582,24.274 6.947,17.568 -2.635,1.277 -16.849,-14.453 -3.913,13.815 -4.95,-0.32 -2.076,-43.998 33.058,1.837 z m -16.928,18.765 6.068,-12.218 -14.134,1.278 1.997,11.259 6.069,-0.319 z m 25.073,-24.754 0,0 32.899,16.449 -1.757,20.842 -29.066,14.772 -2.076,-52.063 z m 8.065,13.415 1.996,25.872 13.575,-7.906 0.08,-8.703 -15.651,-9.263 z m 55.098,-4.152 -15.571,1.038 -1.837,11.978 17.408,1.277 0,4.871 -15.891,2.076 1.597,10.7 14.853,0.4 0.319,5.429 -23.796,1.677 -2.635,-46.074 26.591,0.479 -1.038,6.149 z m 17.407,1.676 1.278,12.937 17.248,-1.358 0.958,25.712 -26.75,0.479 0.479,-3.912 16.449,-3.673 0.879,-9.743 -16.849,1.358 -1.757,-30.184 23.956,0.479 -0.32,6.229 -15.571,1.676 z m 36.732,1.597 -10.46,0.799 1.277,-8.784 24.834,0.16 0,6.308 -8.943,0.958 0.878,36.493 -10.54,0 2.954,-35.934 z m 47.432,-3.273 -15.571,1.038 -1.837,11.978 17.408,1.277 0,4.871 -15.891,2.076 1.598,10.7 14.852,0.4 0.319,5.429 -23.795,1.677 -2.635,-46.074 26.59,0.479 -1.038,6.149 z"
       id="path12"
       style="fill:#000000;stroke:none" />
    <path
       d="m 455.155,439.756 11.783,5.071 2.543,2.867 2.593,11.469 -1.996,0.27 -4.591,-10.914 -11.659,-6.437 1.327,-2.326 z m 12.506,-11.927 12.33,8.207 1.51,3.771 1.017,12.739 -2.88,0.463 -2.407,-13.518 -10.953,-9.508 1.383,-2.154 z m 14.284,-5.877 2.432,-1.549 10.648,12.354 1.138,4.081 -2.839,14.278 -3.073,-0.422 1.22,-14.887 -9.526,-13.855 z m 31.224,10.682 0.213,5.897 -7.046,17.066 -3.495,-1.136 4.694,-18.764 -8.43,-19.515 3.859,-1.823 10.205,18.275 z m -83.485,35.39 19.134,-10.769 9.797,7.99 -2.792,19.376 -26.139,-16.597 z m 92.977,-59.787 33.582,23.174 -4.867,22.893 -34.579,11.908 5.864,-57.975 z m 15.449,45.172 8.487,-7.685 -6.429,-1.13 -4.609,7.087 2.551,1.728 z m 4.455,-17.171 3.413,0.595 1.965,-3.859 -6.227,-1.385 0.849,4.649 z m -88.398,21.74 3.798,-5.213 5.125,0.322 -6.683,6.246 -2.24,-1.355 z"
       id="path14"
       style="fill:#000000;stroke:none" />
    <path
       d="m 409.68,489.803 -100.998,38.926 -11.873,-22.093 110.616,-97.09 111.218,88.974 -11.873,32.464 -97.09,-41.181 z m 58.314,-3.306 6.162,7.064 -7.665,5.711 0,3.757 10.972,-3.757 -0.752,10.07 3.757,0 2.405,-8.717 7.064,7.965 2.856,-2.555 -6.914,-10.07 9.469,-6.763 -2.555,-3.306 -8.266,3.907 0.751,-8.566 -4.058,-0.752 -2.254,9.318 -7.665,-6.312 -3.307,3.006 z m -76.8,-38.025 -3.157,4.81 9.319,6.763 -7.966,9.318 2.555,4.058 10.671,-7.064 3.156,10.972 4.81,0 0,-10.972 10.069,6.463 3.157,-4.208 -11.122,-9.92 9.468,-11.723 -3.907,-2.104 -9.318,7.816 -1.504,-11.273 -5.41,1.053 0,11.572 -10.821,-5.561 z m -70.188,45.089 0,3.907 7.665,2.405 -2.104,8.717 2.104,2.255 5.561,-8.567 5.411,7.064 3.006,-1.503 -3.006,-7.966 8.567,1.653 1.502,-3.006 -10.821,-4.208 3.156,-9.919 -3.156,-0.902 -3.757,7.966 -4.96,-7.064 -2.855,1.503 2.855,8.416 -9.168,-0.751 z m 119.935,15.63 39.527,16.232 0,10.521 -143.08,-4.208 -0.901,-7.816 43.284,-15.029 61.17,0.3 z m -64.777,19.538 3.156,-10.069 -13.226,0 1.654,10.069 8.416,0 z m 44.037,-12.474 -15.18,1.503 3.006,10.07 10.069,-0.601 2.105,-10.972 z m 33.966,5.862 -13.226,-2.405 -0.601,8.867 8.717,2.104 5.11,-8.566 z m -160.214,29.908 14.729,-20.289 6.162,3.005 -17.133,19.689 -3.758,-2.405 z m 3.758,-28.105 5.41,4.809 -14.578,20.29 -4.96,-3.006 14.128,-22.093 z m 218.528,1.503 14.127,21.943 -4.058,3.006 -14.578,-19.388 4.509,-5.561 z m -15.631,12.625 6.162,-3.307 15.18,20.591 -4.81,3.006 -16.532,-20.29 z"
       id="path16"
       style="fill:#000000;stroke:none" />
    <path
       d="m 374.47,637.568 0,0 -15.756,-1.348 -0.425,-6.317 24.698,-0.425 -2.271,31.014 -16.608,-1.774 0.426,9.865 17.104,3.62 0,4.045 -26.969,-0.497 1.349,-25.124 17.104,-0.426 1.348,-12.633 z m 15.898,-6.032 0,0 31.299,-1.987 -4.826,44.57 -23.066,1.774 -3.407,-44.357 z m 10.93,36.195 0,0 8.445,-1.064 3.052,-27.892 -13.91,0.71 2.413,28.246 z m 38.68,8.801 -8.801,-0.426 0,-32.505 -5.252,0 5.678,-13.272 0,-0.426 0,0 0,0 0,0 5.536,0 2.839,46.629 z m 23.562,-37.899 -16.607,-0.922 -0.781,-6.104 27.466,-2.129 -3.052,47.125 -22.64,-0.426 0.426,-5.181 12.846,-1.703 1.774,-11.356 -13.555,-1.277 -0.497,-5.536 14.62,-1.774 0,-10.717 z"
       id="path18"
       style="fill:#000000;stroke:none" />
    <g
       id="g20"
       style="fill:#000000">
      <path
         d="m 325.424,669.005 -4.472,0.24 -1.837,-10.381 -10.38,6.468 -1.597,-4.072 7.266,-7.666 -8.145,-6.628 2.715,-4.312 9.423,5.27 0.798,-10.62 4.232,-0.239 1.677,9.741 8.305,-6.467 3.274,2.315 -8.704,10.061 9.821,9.343 -2.954,3.194 -8.943,-6.148 -0.479,9.901 z"
         id="path22"
         style="fill:#000000;stroke:none" />
      <path
         d="m 508.418,672.333 -4.472,0.239 -1.836,-10.381 -10.381,6.468 -1.597,-4.072 7.266,-7.666 -8.145,-6.627 2.715,-4.313 9.423,5.271 0.799,-10.621 4.232,-0.239 1.676,9.742 8.305,-6.468 3.274,2.315 -8.704,10.062 9.822,9.342 -2.955,3.195 -8.943,-6.149 -0.479,9.902 z"
         id="path24"
         style="fill:#000000;stroke:none" />
    </g>
    <path
       d="m 550.63,445.065 0.436,-2.762 16.427,-0.873 -10.322,3.49 8.287,5.233 -14.828,-5.088 z"
       id="path26"
       style="fill:#000000;stroke:none" />
  </g>
</svg>
